<svg xmlns="http://www.w3.org/2000/svg" viewBox="0 0 551.55 144.57"><defs><style>.cls-1{fill:#ff413e;}.cls-2{fill:#fff;}</style></defs><g id="Layer_2" data-name="Layer 2"><g id="Layer_1-2" data-name="Layer 1"><path class="cls-1" d="M507.92,132.91a73.2,73.2,0,0,1-11.68,1c-12.15,0-22.69-3.36-31.11-9.63-9.57,10.36-23.79,16.83-41.22,17.86-1.55.09-3.06.13-4.52.13-13.84,0-25.9-4-35.45-11.29a44.57,44.57,0,0,1-11.89,7.87,66.07,66.07,0,0,1-26.22,5.75c-.54,0-1.08,0-1.59,0-14.33-.48-26.31-5-35.12-12.65-7.8,5.08-18.14,7.91-30.14,7.91a61.33,61.33,0,0,1-7-.39c-11.91-1.34-22-5.65-29.77-12.26a33.31,33.31,0,0,1-16,3.83c-.45,0-.9,0-1.38,0-13.57-.45-22.17-7.71-26.52-17.39a39.74,39.74,0,0,1-8.81.93c-.54,0-1.08,0-1.64,0a32.73,32.73,0,0,1-6.89-1c-5.2,9.61-15,15.45-27.45,15.45l-1.44,0A33.72,33.72,0,0,1,137.14,125a32.5,32.5,0,0,1-17.92,6.63c-1.16.09-2.29.13-3.34.13a35.43,35.43,0,0,1-12.73-2.37,36.21,36.21,0,0,1-9.85,2.91,34.62,34.62,0,0,1-4.93.37c-13.71,0-21.94-8.36-26.33-14.5H62c-2.39,7.21-8.4,20.14-25.29,22.71a42.35,42.35,0,0,1-6,.47C18,141.38,3.39,134.23.35,114.15c-1.29-8.6,1-23.44,6.55-53.46.8-4.28,1.49-7.88,1.88-10.25,5-30.06,22.71-38.89,36.73-41a51.71,51.71,0,0,1,7.54-.56c11.81,0,22,4.2,28.94,11.93C86.47,9.09,97.07,2.13,112.73,1.08c.8-.05,1.58-.09,2.33-.09A29.77,29.77,0,0,1,136,9.14C142.49,3.3,151.06,0,161,0l1.53,0c14.09.48,23,8,28.82,16.4C197.73,8.42,207.06,2,221.13,2l1.38,0c16.82.56,25.7,8.77,30.2,15.56a37.61,37.61,0,0,1,5.45,13.66,54.6,54.6,0,0,1,20-3.69,59.64,59.64,0,0,1,7,.41A50.7,50.7,0,0,1,314,41.06c8.32-5.88,18.79-9,31.07-9,.8,0,1.59,0,2.41,0A55.79,55.79,0,0,1,370,37.49c.74-1.21,1.53-2.37,2.35-3.49,7-9.5,20.39-21.14,44.47-22.56,1.47-.09,3-.13,4.68-.13,16.82,0,36.28,6,43.86,21.87a59.06,59.06,0,0,1,23.32-8.77,71.78,71.78,0,0,1,11.5-1c18.68,0,30.08,8.36,36.37,15.41,7.3,8.18,12,19.06,14.26,33.22C555.57,101.52,536.72,128.26,507.92,132.91Z"/><path class="cls-2" d="M345.83,133.8c-.38,0-.77,0-1.13,0-11.62-.38-21.44-3.84-28.5-10l-4.13-3.61a3.54,3.54,0,0,0-4.23-.3l-4.6,3c-6.18,4-14.57,6.16-24.26,6.16a50.86,50.86,0,0,1-5.79-.31c-9.61-1.08-17.68-4.37-24-9.77l-3.79-3.21a3.5,3.5,0,0,0-3.94-.42l-4.37,2.36a22.64,22.64,0,0,1-10.85,2.54h-.9c-8.26-.28-14-4-17.17-11l-2.44-5.4a3.52,3.52,0,0,0-4-2l-5.78,1.3a29,29,0,0,1-6.45.67h-.28c-.31,0-.63,0-.95,0a21.44,21.44,0,0,1-4.66-.62l-5.48-1.39a3.52,3.52,0,0,0-3.95,1.74l-2.69,5c-3.41,6.32-9.8,9.8-18,9.8l-1.22,0a22.86,22.86,0,0,1-10-2.62l-4.18-2.27a3.52,3.52,0,0,0-3.83.32l-3.74,2.92a21.82,21.82,0,0,1-12,4.38c-1,.08-1.82.11-2.62.11a24.62,24.62,0,0,1-8.78-1.62l-2.9-1.14a3.53,3.53,0,0,0-2.76.08l-2.83,1.31a25.48,25.48,0,0,1-6.91,2,24,24,0,0,1-3.33.24c-7,0-12.76-3.27-17.57-10l-2.17-3a3.53,3.53,0,0,0-2.86-1.47h-9a3.53,3.53,0,0,0-3.33,2.38l-1.71,5C48.65,124.09,43.35,129,35,130.26a32.79,32.79,0,0,1-4.41.35c-5.08,0-17.16-1.76-19.62-18.07-1.06-7,1.36-22.29,6.48-49.88L18,59.74c.58-3.09,1.06-5.7,1.37-7.57,3.17-19.24,12.24-29.75,27.72-32.1a40.88,40.88,0,0,1,5.92-.44c8.77,0,16,2.89,20.93,8.37l7.93,8.81a3.52,3.52,0,0,0,5.9-1.09l4.24-11.08c3-7.74,10.17-12.06,21.41-12.81.5,0,1.06-.07,1.6-.07a19,19,0,0,1,13.46,5.15l4.86,4.66a3.51,3.51,0,0,0,4.78.08l5-4.5A26.19,26.19,0,0,1,161,10.77l1.23,0c8.51.3,14.95,4,20.25,11.74l5.56,8.07a3.51,3.51,0,0,0,5.64.19l6.11-7.67c5.62-7.07,12.39-10.37,21.32-10.37l1.16,0c9.74.36,17,4,21.45,10.74a27.23,27.23,0,0,1,3.85,9.76l1.66,8.56a3.52,3.52,0,0,0,4.73,2.6l8.12-3.18a43.8,43.8,0,0,1,16.06-2.94,49.22,49.22,0,0,1,5.75.33A40,40,0,0,1,306.69,49L311,53a3.52,3.52,0,0,0,4.42.3l4.82-3.41c6.62-4.68,15-7,24.85-7h.41c.47,0,.95,0,1.43,0h.22a45.15,45.15,0,0,1,18.15,4.34l5.94,2.87a3.52,3.52,0,0,0,4.54-1.34l3.43-5.64c.5-.84,1.1-1.73,1.83-2.73,5.61-7.61,16.51-17,36.41-18.16,1.26-.07,2.62-.11,4-.11,12.88,0,28.61,4.14,34.14,15.74l3.59,7.52a3.51,3.51,0,0,0,5.11,1.42l7-4.59A48.41,48.41,0,0,1,490.39,35a61.81,61.81,0,0,1,9.79-.83c11.8,0,21.34,4,28.34,11.81,5.89,6.61,9.71,15.7,11.66,27.76a42.92,42.92,0,0,1-7,31.8,40.63,40.63,0,0,1-26.95,16.7,63,63,0,0,1-10,.83c-9.69,0-18-2.52-24.68-7.5l-5.24-3.9a3.52,3.52,0,0,0-4.68.44l-4.43,4.8c-7.92,8.58-19.66,13.56-33.94,14.41-1.3.07-2.61.11-3.88.11-11.29,0-21-3.06-28.91-9.08l-4.89-3.74a3.52,3.52,0,0,0-4.54.24l-4.49,4.22a34.08,34.08,0,0,1-9,5.93A55.42,55.42,0,0,1,345.83,133.8Z"/><path class="cls-1" d="M66.68,36c6.47,8.18,13.17,22.2,18.76,34,3.48,7.45,12.27,22.33,13.34,29.36.85,5.63-.9,10.47-8.7,11.65-6.13.93-9.37-3.16-12.54-8.56-2.45-4.07-5.72-6.72-10.37-6.27-2.19.2-6.87.38-11.85,1.14-8,1.22-10.37,4-11.78,7.67-2.37,6-2.29,13.42-10.08,14.6-8.06,1.22-10.85-2.54-11.78-8.68-1.26-8.31,6.53-45.83,8.37-57,1.77-10.73,5.67-21.25,18.71-23.23C54.38,29.87,62.3,30.37,66.68,36ZM64.33,81.71a4.86,4.86,0,0,0,3.21-5.58C66.76,71,60.38,60,57.58,55.28c-1.21-1.91-3-4.26-5.43-3.89A4.48,4.48,0,0,0,48.75,54c-2.12,5.81-4.6,22.27-4.21,24.82.81,5.37,5.82,5.66,9.92,5C57.78,83.36,61.74,82.76,64.33,81.71Z"/><path class="cls-1" d="M124.35,32.78c.34,5-1.83,13.21-7.89,13.61-6.71.46-14.69-.82-15.25-9.07-.73-10.71,2.81-14,13-14.74C120.78,22.13,123.94,26.71,124.35,32.78Zm-20,30.5c-.48-7.1,3-9,9.08-9.43,5.67-.38,10,1.14,10.46,7.2.58,8.64.61,14.86,1,21,.38,5.54,2.56,9.15,2.89,14.05.49,7.22-1.94,13.48-10.06,14-8.38.56-10.91-2.38-11.46-10.5s-.21-16.44-.76-24.57C105.32,71.37,104.64,67,104.39,63.28Z"/><path class="cls-1" d="M161.86,21.57c12.41.41,15.94,14.88,19.49,24.83,3.19,9,6,17.79,8.82,26.67,2.82-7.14,5.52-14.43,8.22-21.71,4.26-11.63,8.3-28.31,23.42-27.81,12.92.43,16.29,8.17,15.85,21.35-.3,9.17-1.42,19.61-1.73,28.78-.27,8.14,1,15.56.74,24.47-.2,6.08-2.32,11.57-11.1,11.28-8-.27-9.35-6.91-9.12-13.63.53-16.15,2.62-28.37,3.11-43.35.15-4.4,0-6.47,0-8C214.75,57.07,209.8,70,203.42,83.08c-3.34,7-6.81,10.13-14.82,9.86-6.33-.21-9.5-6-11.92-11-2.67-5.26-4.55-11-6.57-16.51-2.49-6.81-5.11-13.62-7.21-20.55-.29,12.67-.43,24.69-.2,37.25.1,4.91,1,9.86.8,14.9-.23,7.1-3.19,10.63-10.69,10.38-9.69-.32-10.58-8.5-10.33-16.12.3-8.92,1.73-17,2-25.93.26-8-.5-16.19-.24-24.2C144.63,30.18,149.33,21.15,161.86,21.57Z"/><path class="cls-1" d="M306.18,73.71C304.34,90,287,91.58,273.89,90.1c-2.18-.25-4.32-.88-6.64-1.14-1-.12-2.34,0-2.5,1.41a7.8,7.8,0,0,0,.06,1.83c1.5,6.28,5.42,9.58,11.71,10.29,10.54,1.19,12-7.35,19.6-6.5,4.11.46,7.9,3.75,7.38,8.38-1.41,12.46-19.35,14.72-29.12,13.62-20.8-2.35-30.31-17.21-28-37.89,2.29-20.29,16.09-33,36.38-30.75C296,50.84,307.59,61.25,306.18,73.71Zm-17.45-3.27c.5-4.49-3.83-6.41-7.56-6.84-6.16-.69-12.53,1.58-13.34,8.77-.47,4.11,2.3,4.95,5.77,5.34C279.12,78.33,288,77.25,288.73,70.44Z"/><path class="cls-1" d="M369.59,85.52c-6.25,9.37-25.26,5.26-34.37,7-2,.45-3.15,1.32-3.22,3.52-.23,7,7,10.31,13.11,10.51,13.56.44,11.9-8.15,19.53-7.9,4.39.14,8.8,3.78,8.65,8.43-.38,11.5-18.9,16.2-28.33,15.89-20.8-.68-31.78-12.93-31.11-33.6.71-21.84,9.6-36.55,33-35.79,13.44.44,26.38,8.1,25.93,22A19.36,19.36,0,0,1,369.59,85.52ZM355,74.18c.17-5.3-7.16-6.7-10.9-6.82-6.46-.21-11,4.17-11.21,10.5-.09,2.71,3.14,2.82,7,2.94C345.81,81,354.73,81.16,355,74.18Z"/><path class="cls-1" d="M447.07,47.3a8.41,8.41,0,0,1-7.75,9.13c-5.68.34-10-5.23-20.21-4.63-14.58.86-18.26,13.25-17.54,25.38.77,13,5.73,26.73,20.05,25.88,8.77-.52,16-5.61,15.49-13.86-.22-3.75-3.21-4-6.82-3.75-1.81.11-4.9.42-5.93.48-4.9.29-8.15-4.3-8.43-9.08-.47-7.87,9.59-8.59,16.3-9C447.58,67,456,68.79,457,85.17c1.17,19.88-11.07,34.07-34.29,35.44-28.26,1.67-39.41-18.26-40.7-40.07C380.3,52.41,392.31,34.48,418.12,33,428.45,32.34,446.3,34.27,447.07,47.3Z"/><path class="cls-1" d="M504.5,111.64c-21.32,3.44-35.38-5.81-39.05-28.53-3.28-20.29,6.78-34.22,26.69-37.44,23.61-3.81,34,8.4,37.43,29.84C532.33,92.61,521.73,108.86,504.5,111.64Zm6.41-36.52C510,69.5,505.09,61,496.29,62.42c-11.24,1.81-13.51,10.43-12.15,18.85,1.4,8.68,8.15,14.8,16.83,13.39C509.26,93.32,512.43,84.56,510.91,75.12Z"/></g></g></svg>